<svg xmlns="http://www.w3.org/2000/svg" xmlns:xlink="http://www.w3.org/1999/xlink" width="68" height="68" viewBox="0 0 68 68">
  <defs>
    <clipPath id="clip-Twitter_Social_Icon_Circle_White_68x68">
      <rect width="68" height="68"/>
    </clipPath>
  </defs>
  <g id="Twitter_Social_Icon_Circle_White_68x68" clip-path="url(#clip-Twitter_Social_Icon_Circle_White_68x68)">
    <path id="排除_4" data-name="排除 4" d="M-300-20a33.787,33.787,0,0,1-13.234-2.672,33.888,33.888,0,0,1-10.807-7.287,33.888,33.888,0,0,1-7.287-10.807A33.787,33.787,0,0,1-334-54a33.787,33.787,0,0,1,2.672-13.234,33.888,33.888,0,0,1,7.287-10.807,33.888,33.888,0,0,1,10.807-7.287A33.787,33.787,0,0,1-300-88a33.786,33.786,0,0,1,13.234,2.672,33.885,33.885,0,0,1,10.807,7.287,33.887,33.887,0,0,1,7.286,10.807A33.788,33.788,0,0,1-266-54a33.788,33.788,0,0,1-2.672,13.234,33.887,33.887,0,0,1-7.286,10.807,33.885,33.885,0,0,1-10.807,7.287A33.786,33.786,0,0,1-300-20Zm-18.88-19.705h0a22.968,22.968,0,0,0,12.6,3.727c14.687,0,23.463-11.93,23.463-23.463,0-.353,0-.718-.017-1.06a16.8,16.8,0,0,0,4.121-4.275,16.743,16.743,0,0,1-4.737,1.3,8.249,8.249,0,0,0,3.625-4.567,16.677,16.677,0,0,1-5.234,2,8.158,8.158,0,0,0-6.019-2.6,8.252,8.252,0,0,0-8.243,8.243,7.575,7.575,0,0,0,.222,1.881,23.194,23.194,0,0,1-9.544-2.565,23.408,23.408,0,0,1-7.454-6.054A8.29,8.29,0,0,0-317.2-63a8.2,8.2,0,0,0,3.676,6.857,8.047,8.047,0,0,1-3.728-1.026v.1a8.287,8.287,0,0,0,6.618,8.089,8.191,8.191,0,0,1-2.172.291,7.842,7.842,0,0,1-1.556-.154,8.227,8.227,0,0,0,7.7,5.729,16.478,16.478,0,0,1-10.244,3.523A15,15,0,0,1-318.88-39.705Z" transform="translate(334 88)" fill="#fff"/>
  </g>
</svg>
