<svg xmlns="http://www.w3.org/2000/svg" xmlns:xlink="http://www.w3.org/1999/xlink" width="68" height="68" viewBox="0 0 68 68">
  <defs>
    <clipPath id="clip-purple_Purple_icon_68x68">
      <rect width="68" height="68"/>
    </clipPath>
  </defs>
  <g id="purple_Purple_icon_68x68" clip-path="url(#clip-purple_Purple_icon_68x68)">
    <g id="组_45" data-name="组 45">
      <rect id="矩形_10" data-name="矩形 10" width="68" height="68" fill="none"/>
      <g id="组_23" data-name="组 23">
        <path id="路径_79" data-name="路径 79" d="M236.26,183.377c-1.189-1.089-5.982-4.571-16.656-4.621,0,0-12.594-.759-18.733,4.871-3.417,3.417-4.621,8.417-4.742,14.621s-.294,17.816,10.91,20.968h.007l-.007,4.807s-.072,1.949,1.211,2.343c1.547.48,2.457-1,3.94-2.593.81-.874,1.934-2.163,2.78-3.145a43.261,43.261,0,0,0,14.22-1.046c1.547-.5,10.3-1.626,11.72-13.239C242.378,194.373,240.193,186.794,236.26,183.377Zm1.3,22.107c-1.2,9.7-8.3,10.316-9.607,10.731a39.736,39.736,0,0,1-12.236,1.039s-4.85,5.846-6.361,7.372a.808.808,0,0,1-.7.287c-.258-.064-.33-.373-.33-.824.007-.645.043-7.988.043-7.988h0c-9.471-2.629-8.919-12.522-8.811-17.7s1.082-9.42,3.969-12.272c5.194-4.7,15.889-4,15.889-4,9.034.043,13.36,2.758,14.363,3.668,3.324,2.858,5.022,9.686,3.782,19.686Z" transform="translate(-185.1 -168.722)" fill="#665cac"/>
        <path id="路径_80" data-name="路径 80" stroke="#665cac" d="M538.406,398.918c-.1-2.171-1.207-3.306-3.306-3.418" fill="none" transform="translate(-500.307 -369.86)" stroke-linecap="round" stroke-linejoin="round" stroke-width="1.2" fill-rule="evenodd"/>
        <path id="路径_81" data-name="路径 81" stroke="#665cac" d="M529.186,357.634a6.952,6.952,0,0,0-1.8-5.064,7.44,7.44,0,0,0-5.189-2.27" fill="none" transform="translate(-487.776 -327.99)" stroke-linecap="round" stroke-linejoin="round" stroke-width="1.2" fill-rule="evenodd"/>
        <path id="路径_82" data-name="路径 82" stroke="#665cac" d="M518.263,317.842a11.17,11.17,0,0,0-3.142-8.285A10.74,10.74,0,0,0,507.4,306.5" fill="none" transform="translate(-473.596 -287.327)" stroke-linecap="round" stroke-linejoin="round" stroke-width="1.2" fill-rule="evenodd"/>
        <path id="路径_83" data-name="路径 83" d="M350.137,335.123a1.694,1.694,0,0,0,1.343-.509l.915-1.151a2.018,2.018,0,0,1,2.561-.354c.583.332,1.631.974,2.281,1.454.694.509,2.118,1.7,2.118,1.7a1.756,1.756,0,0,1,.376,2.3.026.026,0,0,1-.007.015,9.544,9.544,0,0,1-1.912,2.355l-.015.015a3.782,3.782,0,0,1-1.941.937,1.09,1.09,0,0,1-.281.015,2.644,2.644,0,0,1-.827-.126l-.022-.029a28.1,28.1,0,0,1-5.337-2.466,31.432,31.432,0,0,1-4.481-2.96,23.7,23.7,0,0,1-2.015-1.786l-.266-.266a23.7,23.7,0,0,1-1.786-2.015,31.842,31.842,0,0,1-2.96-4.481,28.094,28.094,0,0,1-2.465-5.337l-.03-.022a2.447,2.447,0,0,1-.125-.827,1.088,1.088,0,0,1,.015-.281,3.782,3.782,0,0,1,.937-1.941l.015-.015a9.411,9.411,0,0,1,2.355-1.912.026.026,0,0,0,.015-.007,1.756,1.756,0,0,1,2.3.377c.007.007,1.188,1.425,1.7,2.118a26.777,26.777,0,0,1,1.454,2.281,2.019,2.019,0,0,1-.354,2.561l-1.152.915a1.7,1.7,0,0,0-.509,1.343S343.745,333.492,350.137,335.123Z" transform="translate(-314.281 -296.62)" fill="#665cac"/>
      </g>
    </g>
  </g>
</svg>
